<svg width="381" height="100" viewBox="0 0 381 100" fill="none" xmlns="http://www.w3.org/2000/svg">
<path d="M25.7844 85.175C21.2667 81.045 19.9479 72.368 21.8301 66.082C25.0937 70.045 29.6156 71.301 34.2995 72.009C41.5303 73.103 48.6316 72.694 55.3488 69.389C56.1172 69.011 56.8273 68.507 57.667 67.998C58.2972 69.826 58.4613 71.672 58.2411 73.551C57.7058 78.127 55.4286 81.662 51.8067 84.341C50.3584 85.413 48.8259 86.371 47.3301 87.382C42.7347 90.487 41.4915 94.129 43.2182 99.427C43.2592 99.556 43.2959 99.685 43.3888 100C41.0425 98.95 39.3287 97.421 38.0228 95.411C36.6436 93.289 35.9874 90.942 35.9529 88.403C35.9356 87.167 35.9356 85.92 35.7694 84.702C35.3636 81.732 33.9692 80.402 31.3424 80.325C28.6465 80.247 26.5139 81.913 25.9484 84.538C25.9052 84.739 25.8426 84.938 25.7801 85.172L25.7844 85.175Z" fill="white"/>
<path d="M25.7844 85.175C21.2667 81.045 19.9479 72.368 21.8301 66.082C25.0937 70.045 29.6156 71.301 34.2995 72.009C41.5303 73.103 48.6316 72.694 55.3488 69.389C56.1172 69.011 56.8273 68.507 57.667 67.998C58.2972 69.826 58.4613 71.672 58.2411 73.551C57.7058 78.127 55.4286 81.662 51.8067 84.341C50.3584 85.413 48.8259 86.371 47.3301 87.382C42.7347 90.487 41.4915 94.129 43.2182 99.427C43.2592 99.556 43.2959 99.685 43.3888 100C41.0425 98.95 39.3287 97.421 38.0228 95.411C36.6436 93.289 35.9874 90.942 35.9529 88.403C35.9356 87.167 35.9356 85.92 35.7694 84.702C35.3636 81.732 33.9692 80.402 31.3424 80.325C28.6465 80.247 26.5139 81.913 25.9484 84.538C25.9052 84.739 25.8426 84.938 25.7801 85.172L25.7844 85.175Z" fill="url(#paint0_linear_502_12)"/>
<path d="M0 65.034C0 65.034 13.3775 58.5177 26.7924 58.5177L36.9068 27.2155C37.2855 25.7017 38.3911 24.6729 39.6393 24.6729C40.8875 24.6729 41.9932 25.7017 42.3719 27.2155L52.4862 58.5177C68.374 58.5177 79.279 65.034 79.279 65.034C79.279 65.034 56.5558 3.133 56.5114 3.0088C55.8592 1.1787 54.7583 0 53.274 0H26.007C24.5227 0 23.4662 1.1787 22.7696 3.0088C22.7205 3.1307 0 65.034 0 65.034Z" fill="white"/>
<path d="M141.043 45.1228C141.043 50.608 134.22 53.8839 124.773 53.8839C118.624 53.8839 116.45 52.3602 116.45 49.1605C116.45 45.8084 119.149 44.2086 125.297 44.2086C130.846 44.2086 135.569 44.2847 141.043 44.9704V45.1228ZM141.118 38.3424C137.744 37.5806 132.645 37.1235 126.572 37.1235C108.877 37.1235 100.555 41.3136 100.555 51.0651C100.555 61.1976 106.253 65.0831 119.449 65.0831C130.621 65.0831 138.193 62.2642 140.968 55.3314H141.417C141.342 57.0075 141.268 58.6835 141.268 59.9786C141.268 63.5593 141.867 63.864 144.791 63.864H158.587C157.837 61.7309 157.388 55.7123 157.388 50.5318C157.388 44.9704 157.612 40.7803 157.612 35.1427C157.612 23.6389 150.715 16.3252 129.121 16.3252C119.824 16.3252 109.477 17.9251 101.605 20.2868C102.354 23.4103 103.404 29.7336 103.929 33.8475C110.752 30.6478 120.424 29.2765 127.922 29.2765C138.268 29.2765 141.118 31.6382 141.118 36.4378V38.3424Z" fill="white"/>
<path d="M178.971 48.3225C177.097 48.551 174.547 48.551 171.923 48.551C169.149 48.551 166.6 48.4749 164.875 48.2463C164.875 48.8558 164.8 49.5414 164.8 50.1509C164.8 59.6739 171.024 65.2351 192.917 65.2351C213.535 65.2351 220.208 59.7501 220.208 50.0747C220.208 40.9326 215.785 36.4378 196.216 35.4474C180.995 34.7617 179.646 33.0857 179.646 31.1811C179.646 28.9718 181.595 27.829 191.792 27.829C202.364 27.829 205.213 29.2765 205.213 32.3239V33.0095C206.713 32.9333 209.412 32.8572 212.186 32.8572C214.81 32.8572 217.659 32.9333 219.309 33.0857C219.309 32.4 219.384 31.7906 219.384 31.2573C219.384 20.0582 210.086 16.4014 192.092 16.4014C171.848 16.4014 165.025 21.3534 165.025 31.0287C165.025 39.7137 170.499 45.1228 189.918 45.9608C204.238 46.4179 205.813 48.0178 205.813 50.2271C205.813 52.5888 203.489 53.6554 193.442 53.6554C181.895 53.6554 178.971 52.0555 178.971 48.7796V48.3225Z" fill="white"/>
<path d="M244.955 8.17334C239.482 13.2777 229.66 18.382 224.187 19.7533C224.262 22.5721 224.262 27.7526 224.262 30.5714L229.285 30.6476C229.21 36.0567 229.135 42.6085 229.135 46.951C229.135 57.0834 234.458 64.7019 251.028 64.7019C258.001 64.7019 262.65 63.94 268.423 62.7211C267.823 58.988 267.148 53.2742 266.923 48.9318C263.475 50.0745 259.126 50.684 254.327 50.684C247.654 50.684 244.955 48.8556 244.955 43.5989C244.955 39.0279 244.955 34.7615 245.03 30.8C253.578 30.8762 262.125 31.0285 267.148 31.1809C267.073 27.2193 267.223 21.5055 267.448 17.6963C260.176 17.8487 252.003 17.9249 245.255 17.9249C245.33 14.5728 245.405 11.3731 245.48 8.17334H244.955Z" fill="white"/>
<path d="M289.736 28.286C289.811 24.3244 289.886 20.9724 289.961 17.6964H274.89C275.115 24.2483 275.115 30.9525 275.115 40.7802C275.115 50.6079 275.04 57.3883 274.89 63.8639H292.135C291.835 59.2929 291.76 51.5983 291.76 45.0465C291.76 34.6855 295.959 31.7143 305.481 31.7143C309.905 31.7143 313.054 32.2476 315.828 33.238C315.903 29.3526 316.653 21.8104 317.102 18.4583C314.253 17.6203 311.104 17.087 307.28 17.087C299.108 17.0108 293.11 20.3629 290.336 28.3622L289.736 28.286Z" fill="white"/>
<path d="M364.808 40.4755C364.808 48.7796 358.81 52.665 349.363 52.665C339.991 52.665 333.993 49.0081 333.993 40.4755C333.993 31.9429 340.066 28.7432 349.363 28.7432C358.735 28.7432 364.808 32.1715 364.808 40.4755ZM380.478 40.0946C380.478 23.5627 367.582 16.1729 349.363 16.1729C331.069 16.1729 318.623 23.5627 318.623 40.0946C318.623 56.5504 330.244 65.3881 349.288 65.3881C368.482 65.3881 380.478 56.5504 380.478 40.0946Z" fill="white"/>
<defs>
<linearGradient id="paint0_linear_502_12" x1="21.0001" y1="100" x2="64.6218" y2="79.39" gradientUnits="userSpaceOnUse">
<stop stop-color="#D83333"/>
<stop offset="1" stop-color="#F041FF"/>
</linearGradient>
</defs>
</svg>
